HIERARCHY
ROOT Hips
{
	OFFSET 0.000000 0.000000 0.000000
	CHANNELS 6 Xposition Yposition Zposition Zrotation Yrotation Xrotation 
	JOINT LHipJoint
	{
		OFFSET 0.000000 0.000000 0.000000
		CHANNELS 3 Zrotation Yrotation Xrotation
		JOINT LeftUpLeg
		{
			OFFSET 1.363060 -1.794630 0.839290
			CHANNELS 3 Zrotation Yrotation Xrotation
			JOINT LeftLeg
			{
				OFFSET 2.448110 -6.726130 0.000000
				CHANNELS 3 Zrotation Yrotation Xrotation
				JOINT LeftFoot
				{
					OFFSET 2.562200 -7.039590 0.000000
					CHANNELS 3 Zrotation Yrotation Xrotation
					JOINT LeftToeBase
					{
						OFFSET 0.157640 -0.433110 2.322550
						CHANNELS 3 Zrotation Yrotation Xrotation
						End Site
						{
							OFFSET 0.000000 0.000000 0.000000
						}
					}
				}
			}
		}
	}
	JOINT RHipJoint
	{
		OFFSET 0.000000 0.000000 0.000000
		CHANNELS 3 Zrotation Yrotation Xrotation
		JOINT RightUpLeg
		{
			OFFSET -1.305520 -1.794630 0.839290
			CHANNELS 3 Zrotation Yrotation Xrotation
			JOINT RightLeg
			{
				OFFSET -2.542530 -6.985550 0.000000
				CHANNELS 3 Zrotation Yrotation Xrotation
				JOINT RightFoot
				{
					OFFSET -2.568260 -7.056230 0.000000
					CHANNELS 3 Zrotation Yrotation Xrotation
					JOINT RightToeBase
					{
						OFFSET -0.164730 -0.452590 2.363150
						CHANNELS 3 Zrotation Yrotation Xrotation
						End Site
						{
							OFFSET 0.000000 0.000000 0.000000
						}
					}
				}
			}
		}
	}
	JOINT LowerBack
	{
		OFFSET 0.000000 0.000000 0.000000
		CHANNELS 3 Zrotation Yrotation Xrotation
		JOINT Spine
		{
			OFFSET 0.028270 2.035590 -0.193380
			CHANNELS 3 Zrotation Yrotation Xrotation
			JOINT Spine1
			{
				OFFSET 0.056720 2.048850 -0.042750
				CHANNELS 3 Zrotation Yrotation Xrotation
				JOINT Neck
				{
					OFFSET 0.000000 0.000000 0.000000
					CHANNELS 3 Zrotation Yrotation Xrotation
					JOINT Neck1
					{
						OFFSET -0.054170 1.746240 0.172020
						CHANNELS 3 Zrotation Yrotation Xrotation
						JOINT Head
						{
							OFFSET 0.104070 1.761360 -0.123970
							CHANNELS 3 Zrotation Yrotation Xrotation
							End Site
							{
								OFFSET 0.000000 0.000000 0.000000
							}
						}
					}
				}
				JOINT LeftShoulder
				{
					OFFSET 0.000000 0.000000 0.000000
					CHANNELS 3 Zrotation Yrotation Xrotation
					JOINT LeftArm
					{
						OFFSET 3.362410 1.200890 -0.311210
						CHANNELS 3 Zrotation Yrotation Xrotation
						JOINT LeftForeArm
						{
							OFFSET 4.983000 -0.000000 -0.000000
							CHANNELS 3 Zrotation Yrotation Xrotation
							JOINT LeftHand
							{
								OFFSET 3.483560 -0.000000 -0.000000
								CHANNELS 3 Zrotation Yrotation Xrotation
								JOINT LeftFingerBase
								{
									OFFSET 0.000000 0.000000 0.000000
									CHANNELS 3 Zrotation Yrotation Xrotation
									JOINT LeftHandIndex1
									{
										OFFSET 0.715260 -0.000000 -0.000000
										CHANNELS 3 Zrotation Yrotation Xrotation
										End Site
										{
											OFFSET 0.000000 0.000000 0.000000
										}
									}
								}
								JOINT LThumb
								{
									OFFSET 0.000000 0.000000 0.000000
									CHANNELS 3 Zrotation Yrotation Xrotation
									End Site
									{
										OFFSET 0.000000 0.000000 0.000000
									}
								}
							}
						}
					}
				}
				JOINT RightShoulder
				{
					OFFSET 0.000000 0.000000 0.000000
					CHANNELS 3 Zrotation Yrotation Xrotation
					JOINT RightArm
					{
						OFFSET -3.136600 1.374050 -0.404650
						CHANNELS 3 Zrotation Yrotation Xrotation
						JOINT RightForeArm
						{
							OFFSET -5.241900 -0.000000 -0.000000
							CHANNELS 3 Zrotation Yrotation Xrotation
							JOINT RightHand
							{
								OFFSET -3.444170 -0.000000 -0.000000
								CHANNELS 3 Zrotation Yrotation Xrotation
								JOINT RightFingerBase
								{
									OFFSET 0.000000 0.000000 0.000000
									CHANNELS 3 Zrotation Yrotation Xrotation
									JOINT RightHandIndex1
									{
										OFFSET -0.622530 -0.000000 -0.000000
										CHANNELS 3 Zrotation Yrotation Xrotation
										End Site
										{
											OFFSET 0.000000 0.000000 0.000000
										}
									}
								}
								JOINT RThumb
								{
									OFFSET 0.000000 0.000000 0.000000
									CHANNELS 3 Zrotation Yrotation Xrotation
									End Site
									{
										OFFSET 0.000000 0.000000 0.000000
									}
								}
							}
						}
					}
				}
			}
		}
	}
}
MOTION
Frames: 5
Frame Time: 0.008333
-19.509986 16.015252 -0.212366 1.317132 80.524966 27.830592 -8.596406 -1.852261 2.814783 -4.163148 -8.332509 -64.851717 -0.537569 2.148571 42.169227 1.993659 8.958160 -3.392622 1.271400 0.000001 -31.803800 10.702609 -3.079042 -2.370562 0.930735 -4.914780 2.233510 1.158049 -1.520251 18.001123 -0.101233 1.454660 10.796331 0.296300 0.000000 -90.722600 -10.153120 0.866750 0.863431 -2.687584 1.372808 -2.528692 -4.596383 1.296387 1.594532 5.898281 -2.711719 -6.295367 -2.226074 -0.174316 0.127987 0.000000 0.000000 0.000000 -6.972919 12.819553 2.464662 -40.744436 16.209202 10.222979 -5.616296 -19.730578 -0.028937 -10.385922 2.713223 -0.250878 -0.214036 -0.103541 -0.000000 0.000000 0.000000 0.000000 0.000000 0.000000 0.000000 7.449403 1.224732 2.326605 32.089686 33.674202 21.093712 0.828710 73.069097 0.032684 8.689671 11.322001 0.903885 -0.115803 -0.373372 0.000000 0.000000 0.000000 0.000000 0.000000 0.000000 0.000000 
-19.281048 16.048171 -0.229945 1.522646 80.396066 27.830907 -8.632812 -1.796649 2.636988 -4.848305 -7.922283 -63.927706 -0.585144 2.181389 42.739969 1.974238 8.841430 -4.034990 1.128800 -0.000001 -31.662200 10.865169 -3.120602 -2.448739 0.492585 -5.654027 1.108320 0.892693 -1.770275 20.694637 -0.293460 0.733502 13.406006 0.190100 0.000001 -89.675100 -10.433218 0.838367 1.021121 -2.743629 1.356687 -2.504240 -4.600578 1.281704 1.582454 5.989944 -2.746020 -6.283670 -2.240772 -0.175303 0.127471 0.000000 0.000000 0.000000 -7.173114 12.615961 2.473527 -41.343812 15.766864 10.084122 -5.608471 -19.535889 -0.028966 -10.416302 2.862425 -0.264783 -0.212153 -0.100796 -0.000000 0.000000 0.000000 0.000000 0.000000 0.000000 0.000000 7.582971 1.162265 2.348787 32.153431 32.913417 21.696993 0.817818 73.552084 0.033030 8.827866 11.336470 0.919170 -0.116469 -0.371146 0.000000 0.000000 0.000000 0.000000 0.000000 0.000000 0.000000 
-19.054030 16.084454 -0.249325 1.919093 80.342179 27.987221 -8.664847 -1.728830 2.464260 -5.574752 -7.538849 -62.869649 -0.653215 2.193265 43.151065 1.950372 8.674348 -4.842227 0.956300 0.000000 -31.578800 11.034631 -3.120961 -2.548026 0.055342 -6.543030 -0.100568 0.635331 -1.985217 23.489410 -0.534790 -0.281175 15.824111 -0.073200 -0.000001 -87.547500 -10.656922 0.784954 1.204988 -2.784866 1.312871 -2.471705 -4.601388 1.239853 1.576773 6.057435 -2.793415 -6.260353 -2.256318 -0.176488 0.130522 0.000000 0.000000 0.000000 -7.364655 12.381377 2.485780 -41.982578 15.282282 10.140983 -5.589522 -19.491091 -0.028989 -10.460624 2.996971 -0.277885 -0.209511 -0.098514 -0.000000 0.000000 0.000000 0.000000 0.000000 0.000000 0.000000 7.703329 1.064830 2.362655 32.245422 32.178378 22.364650 0.809026 73.921359 0.033082 8.932027 11.364398 0.931856 -0.116598 -0.367946 0.000000 0.000000 0.000000 0.000000 0.000000 0.000000 0.000000 
-18.828596 16.124095 -0.271238 2.366173 80.364709 28.174926 -8.698821 -1.648321 2.308277 -6.288439 -7.191198 -61.708382 -0.734390 2.186248 43.411337 1.924100 8.466019 -5.766472 0.764900 -0.000000 -31.540800 11.192387 -3.080245 -2.662950 -0.329110 -7.523942 -1.365231 0.401548 -2.162509 26.325705 -0.815079 -1.632197 17.924399 -0.543899 -0.000000 -84.389400 -10.794894 0.708642 1.400240 -2.805374 1.242560 -2.433555 -4.599993 1.171886 1.579513 6.097098 -2.857000 -6.229540 -2.271344 -0.177730 0.136486 0.000000 0.000000 0.000000 -7.563094 12.138038 2.500371 -42.647427 14.741836 10.385760 -5.559817 -19.612154 -0.029024 -10.527515 3.120212 -0.290782 -0.206234 -0.096643 -0.000000 0.000000 0.000000 0.000000 0.000000 0.000000 0.000000 7.797143 0.931672 2.365055 32.386392 31.469897 23.072239 0.803473 74.162345 0.032861 9.009193 11.411018 0.943243 -0.116243 -0.363744 0.000000 0.000000 0.000000 0.000000 0.000000 0.000000 0.000000 
-18.604759 16.167342 -0.294817 2.994013 80.470440 28.528367 -8.727939 -1.557630 2.172141 -6.995306 -6.908409 -60.440520 -0.825130 2.156519 43.507791 1.898806 8.242201 -6.749019 0.568300 0.000000 -31.534000 11.343802 -3.003376 -2.792957 -0.682654 -8.585342 -2.677604 0.203947 -2.311681 29.170706 -1.118430 -3.278004 19.587350 -1.220000 -0.000001 -80.455700 -10.869829 0.606395 1.602979 -2.810482 1.144027 -2.390440 -4.597456 1.076025 1.590229 6.122661 -2.943516 -6.192996 -2.285836 -0.178999 0.144737 0.000000 0.000000 0.000000 -7.750772 11.879461 2.517836 -43.335437 14.146559 10.794843 -5.519370 -19.897382 -0.029000 -10.608137 3.223463 -0.302473 -0.202281 -0.095071 -0.000000 0.000000 0.000000 0.000000 0.000000 0.000000 0.000000 7.880012 0.755660 2.356950 32.579972 30.786498 23.799806 0.802060 74.270462 0.032391 9.052956 11.464734 0.951534 -0.115217 -0.358528 0.000000 0.000000 0.000000 0.000000 0.000000 0.000000 0.000000 
